<svg xmlns="http://www.w3.org/2000/svg" viewBox="0 0 80 100">
  <defs>
    <linearGradient id="bananaBody" x1="16" y1="28" x2="70" y2="78" gradientUnits="userSpaceOnUse">
      <stop stop-color="#ffe566"/>
      <stop offset="1" stop-color="#f9a825"/>
    </linearGradient>
  </defs>
  <ellipse cx="42" cy="93" rx="24" ry="4.2" fill="#000" opacity=".2"/>
  <path d="M18 34c2-10 10-16 20-14 18 4 34 22 38 42 2 10-2 18-12 16-8-2-14-12-22-22-8-10-16-16-22-16-4 0-4-2-2-6z" fill="url(#bananaBody)" stroke="#c67c00" stroke-width="2.4" stroke-linejoin="round"/>
  <path d="M24 36c10 2 24 16 32 32" fill="none" stroke="#fff59d" stroke-width="3.2" stroke-linecap="round" opacity=".55"/>
  <path d="M20 28c4-2 8 0 8 4" fill="none" stroke="#6d4c41" stroke-width="2.6" stroke-linecap="round"/>
  <path d="M62 76c4 2 8 0 10-4" fill="none" stroke="#6d4c41" stroke-width="2.4" stroke-linecap="round"/>
</svg>
